HIERARCHY
ROOT root
{
	OFFSET 0.000000 0.000000 0.000000
	CHANNELS 6 Xposition Yposition Zposition Zrotation Yrotation Xrotation
	JOINT lhip
	{
		OFFSET 0.058581 -0.082280 -0.017664
		CHANNELS 3 Zrotation Yrotation Xrotation
		JOINT lknee
		{
			OFFSET 0.043451 -0.386469 0.008037
			CHANNELS 3 Zrotation Yrotation Xrotation
			JOINT lankle
			{
				OFFSET -0.014790 -0.426874 -0.037428
				CHANNELS 3 Zrotation Yrotation Xrotation
				JOINT ltoe
				{
					OFFSET 0.041054 -0.060286 0.122042
					CHANNELS 3 Zrotation Yrotation Xrotation
					End Site
					{
						OFFSET 0.000000 0.000000 0.000000
					}
				}
			}
		}
	}
	JOINT rhip
	{
		OFFSET -0.060310 -0.090513 -0.013543
		CHANNELS 3 Zrotation Yrotation Xrotation
		JOINT rknee
		{
			OFFSET -0.043257 -0.383688 -0.004843
			CHANNELS 3 Zrotation Yrotation Xrotation
			JOINT rankle
			{
				OFFSET 0.019056 -0.420046 -0.034562
				CHANNELS 3 Zrotation Yrotation Xrotation
				JOINT rtoe
				{
					OFFSET -0.034840 -0.062106 0.130323
					CHANNELS 3 Zrotation Yrotation Xrotation
					End Site
					{
						OFFSET 0.000000 0.000000 0.000000
					}
				}
			}
		}
	}
	JOINT lowerback
	{
		OFFSET 0.004439 0.124404 -0.038385
		CHANNELS 3 Zrotation Yrotation Xrotation
		JOINT upperback
		{
			OFFSET 0.004488 0.137956 0.026820
			CHANNELS 3 Zrotation Yrotation Xrotation
			JOINT chest
			{
				OFFSET -0.002265 0.056032 0.002855
				CHANNELS 3 Zrotation Yrotation Xrotation
				JOINT lowerneck
				{
					OFFSET -0.013390 0.211636 -0.033468
					CHANNELS 3 Zrotation Yrotation Xrotation
					JOINT upperneck
					{
						OFFSET 0.010113 0.088937 0.050410
						CHANNELS 3 Zrotation Yrotation Xrotation
						End Site
						{
							OFFSET 0.000000 0.000000 0.000000
						}
					}
				}
				JOINT lclavicle
				{
					OFFSET 0.071702 0.114000 -0.018898
					CHANNELS 3 Zrotation Yrotation Xrotation
					JOINT lshoulder
					{
						OFFSET 0.122921 0.045205 -0.019046
						CHANNELS 3 Zrotation Yrotation Xrotation
						JOINT lelbow
						{
							OFFSET 0.255332 -0.015649 -0.022946
							CHANNELS 3 Zrotation Yrotation Xrotation
							JOINT lwrist
							{
								OFFSET 0.265709 0.012698 -0.007375
								CHANNELS 3 Zrotation Yrotation Xrotation
								End Site
								{
									OFFSET 0.000000 0.000000 0.000000
								}
							}
						}
					}
				}
				JOINT rclavicle
				{
					OFFSET -0.082954 0.112472 -0.023707
					CHANNELS 3 Zrotation Yrotation Xrotation
					JOINT rshoulder
					{
						OFFSET -0.113228 0.046853 -0.008472
						CHANNELS 3 Zrotation Yrotation Xrotation
						JOINT relbow
						{
							OFFSET -0.260127 -0.014369 -0.031269
							CHANNELS 3 Zrotation Yrotation Xrotation
							JOINT rwrist
							{
								OFFSET -0.269108 0.006794 -0.006027
								CHANNELS 3 Zrotation Yrotation Xrotation
								End Site
								{
									OFFSET 0.000000 0.000000 0.000000
								}
							}
						}
					}
				}
			}
		}
	}
}
MOTION
Frames: 8
Frame Time: 0.033333
1.167910 0.182888 0.996951 -87.863716 1.506947 85.520718 -2.078071 -3.034617 5.404692 -2.258235 -15.043360 5.812024 2.950100 9.373365 -15.481973 0.000000 -0.000000 0.000000 4.238645 -0.001314 2.564106 3.096181 1.110628 8.782311 3.357115 -4.891890 -10.495748 0.000000 -0.000000 0.000000 -1.576517 -0.804361 10.248252 1.255730 -4.955154 4.375690 -0.610682 -2.619553 6.995161 0.905532 6.959341 5.618358 0.804269 -0.466520 9.329331 -23.740822 7.969068 1.704454 -59.906774 -6.196841 9.710121 12.529729 -32.343022 -2.323862 4.736900 -11.062375 -25.213799 24.032852 -7.471513 -1.458129 64.184611 -1.388025 13.570088 -16.345664 29.752675 -3.693464 2.249770 0.758362 -9.092120 
1.168471 0.182387 0.995501 -87.742501 1.981819 85.726880 -1.461274 -3.236342 5.030069 -2.358564 -14.563177 5.901626 2.812635 8.960541 -15.694742 0.000000 -0.000000 0.000000 4.756919 0.130123 2.445915 2.913399 0.576594 8.545184 3.133787 -4.732953 -10.309019 0.000000 -0.000000 0.000000 -1.506736 -0.460013 9.569636 1.792850 -4.910908 5.450793 -0.333989 -2.959287 6.883383 1.160681 7.111574 5.102176 0.426161 -0.553770 9.919193 -23.042520 6.861389 2.388248 -61.349635 -7.206953 10.242617 13.624754 -30.983070 -2.726340 3.064960 -12.723940 -27.083614 23.655200 -7.312155 -1.288955 64.226807 -0.676741 13.651902 -15.568822 30.577796 -3.688933 4.055752 3.915540 -12.594494 
1.168769 0.181928 0.993840 -87.917133 2.429857 85.818284 -0.882871 -3.042861 4.850787 -2.496616 -14.541013 5.910639 3.079708 8.918400 -15.796098 0.000000 -0.000000 0.000000 5.116836 0.032908 2.363724 3.083856 0.755561 8.444652 2.757650 -4.830776 -10.216833 0.000000 -0.000000 0.000000 -1.138136 -0.338958 8.904142 2.025459 -4.987066 6.470672 -0.380533 -3.040780 6.736147 1.263583 7.656552 5.153018 0.220178 -0.242622 9.774326 -22.956175 5.827352 2.526661 -61.621050 -7.607661 10.303554 13.242689 -30.093134 -1.134795 3.320560 -11.047124 -24.155066 23.348175 -6.929905 -1.152900 64.620794 -0.669102 13.588964 -16.502373 30.640472 -3.226490 2.195610 3.014269 -11.509361 
1.169244 0.180993 0.993071 -88.552750 2.732125 85.957633 -0.667727 -2.822757 4.707249 -2.498423 -14.256320 5.907367 3.098316 9.132647 -16.237132 0.000000 -0.000000 0.000000 5.345641 0.029829 2.245971 3.017584 0.931791 8.358913 2.785644 -4.398469 -10.186372 0.000000 -0.000000 0.000000 -0.935668 -0.237665 8.536881 2.098016 -4.925528 6.924684 -0.380285 -2.899897 6.676828 1.226488 7.900917 5.223754 0.077580 -0.332404 9.629103 -23.116587 5.502412 2.163320 -61.309372 -7.527413 10.318503 12.791892 -30.326707 -0.125316 2.307995 -9.190459 -21.168032 23.490475 -6.540490 -1.157424 64.471730 -0.662220 13.631492 -16.275329 30.968604 -2.440247 3.287305 2.075553 -10.946681 
1.169538 0.180763 0.992843 -88.804088 2.911841 86.188262 -0.437552 -2.751325 4.339348 -2.623749 -14.245855 6.118127 3.407781 9.272269 -16.249216 0.000000 -0.000000 0.000000 5.518960 -0.060713 2.085455 3.010027 1.179514 8.196284 2.757996 -4.331445 -10.102234 0.000000 -0.000000 0.000000 -0.931948 -0.166592 8.497918 2.222976 -4.786396 6.743017 -0.321280 -2.957563 6.552114 1.277121 7.903426 5.411893 0.173117 -0.216721 9.541216 -23.204964 5.705230 1.959366 -61.058908 -7.465329 10.196063 12.558069 -30.744574 0.184984 1.720906 -7.846470 -20.045252 23.515458 -6.679760 -1.075643 64.535428 -0.802605 13.734973 -16.185980 31.350354 -2.187258 4.199015 1.402853 -11.181021 
1.169644 0.180165 0.992891 -89.095634 3.103783 86.165132 -0.301094 -2.727526 4.353354 -2.613172 -14.244981 6.217214 3.490666 9.408246 -16.347730 0.000000 -0.000000 0.000000 5.669914 -0.046007 2.301160 2.982131 1.322733 7.884661 2.845646 -4.235276 -9.970404 0.000000 -0.000000 0.000000 -0.958175 -0.038073 8.587461 2.302732 -4.718493 6.639872 -0.242105 -2.936242 6.584900 1.318128 7.905683 5.694496 0.252094 -0.349943 9.462526 -23.095088 5.776900 1.818918 -60.967135 -7.660914 10.073789 12.249784 -31.034064 0.408298 1.825965 -6.293136 -18.753307 23.587396 -6.612283 -1.091493 64.825219 -0.841308 13.695529 -16.341556 31.391688 -2.754496 3.241047 1.419211 -11.335744 
1.170150 0.179289 0.992934 -89.409508 3.135679 86.196646 -0.288979 -2.538488 4.388145 -2.657154 -14.235203 6.055459 3.715158 9.547285 -16.412077 0.000000 -0.000000 0.000000 5.603647 -0.055166 2.201779 2.981862 1.524253 7.987290 2.930244 -4.102987 -9.935364 0.000000 -0.000000 0.000000 -1.095067 0.026743 8.508268 2.334818 -4.717585 6.885183 -0.213199 -2.845645 6.599248 1.408649 7.991999 5.518580 0.243359 -0.473074 9.311948 -23.046277 5.711391 1.685938 -60.688835 -7.545692 10.080591 11.761336 -31.779599 1.318378 1.651555 -4.807183 -16.772532 23.790936 -6.684089 -1.213441 64.873917 -0.687099 13.580574 -16.250941 31.739821 -2.679326 3.561601 1.380701 -10.763413 
1.170381 0.178400 0.992811 -89.534948 3.165641 86.266996 -0.270105 -2.335437 4.330760 -2.665969 -14.231810 5.956572 3.714071 9.465367 -16.253205 0.000000 -0.000000 0.000000 5.585224 0.072092 1.968382 2.969488 1.439933 8.246355 2.936159 -4.037877 -9.976497 0.000000 -0.000000 0.000000 -1.313658 0.144482 8.138737 2.430100 -4.827365 7.454195 -0.162900 -2.809322 6.567119 1.520906 8.235850 5.434084 0.145425 -0.637370 8.993788 -23.039583 5.408643 1.407773 -60.453471 -7.461004 10.184473 11.142111 -31.836851 3.013660 0.688215 -3.054144 -13.904352 23.759711 -6.489324 -1.271571 65.042938 -0.841717 13.566797 -16.246659 32.071940 -2.458077 4.714815 0.757626 -11.386853 
